<svg width="25" height="36" viewBox="0 0 25 36" fill="none" xmlns="http://www.w3.org/2000/svg">
<path d="M12.5 0C5.60755 0 0 5.61357 0 12.5134C0 21.1858 12.5123 36 12.5123 36C12.5123 36 25 20.7593 25 12.5134C25 5.61357 19.3927 0 12.5 0ZM16.2715 16.1774C15.2316 17.2182 13.8659 17.7387 12.5 17.7387C11.1343 17.7387 9.76822 17.2182 8.72871 16.1774C6.64903 14.0957 6.64903 10.7084 8.72871 8.62646C9.73573 7.61792 11.0753 7.06245 12.5 7.06245C13.9247 7.06245 15.264 7.61814 16.2715 8.62646C18.3512 10.7084 18.3512 14.0957 16.2715 16.1774Z" fill="white"/>
</svg>
