<svg width="25" height="27" viewBox="0 0 25 27" fill="none" xmlns="http://www.w3.org/2000/svg">
<path d="M10.416 27C8.26298 27 6.50977 25.1077 6.50977 22.7811C6.50977 22.3154 6.85976 21.9374 7.29101 21.9374C7.72225 21.9374 8.07225 22.3154 8.07225 22.7811C8.07225 24.1774 9.12433 25.3124 10.416 25.3124C11.7076 25.3124 12.7597 24.1774 12.7597 22.7811C12.7597 22.3154 13.1097 21.9374 13.5409 21.9374C13.9722 21.9374 14.3222 22.3154 14.3222 22.7811C14.3222 25.1077 12.5691 27 10.416 27Z" fill="white"/>
<path d="M19.0102 23.6257H1.82283C0.817672 23.6257 0 22.7426 0 21.657C0 21.0808 0.232313 20.5354 0.637429 20.1606C0.66356 20.1359 0.691597 20.1135 0.72078 20.0931C2.24989 18.6519 3.12497 16.5786 3.12497 14.3892V11.2504C3.12497 7.58633 5.42387 4.44075 8.71554 3.60028C9.1363 3.49563 9.55724 3.77352 9.65623 4.22816C9.75503 4.68156 9.49468 5.13599 9.07602 5.2429C6.49159 5.9021 4.68745 8.37263 4.68745 11.2504V14.3892C4.68745 17.1073 3.58425 19.6792 1.66357 21.4442C1.64793 21.4578 1.63439 21.4702 1.61761 21.4825C1.58957 21.5209 1.56248 21.5794 1.56248 21.657C1.56248 21.8099 1.68131 21.9382 1.82283 21.9382H19.0102C19.1519 21.9382 19.2707 21.8099 19.2707 21.657C19.2707 21.5781 19.2436 21.5209 19.2144 21.4825C19.1988 21.4702 19.1841 21.4578 19.1696 21.4442C18.2364 20.5848 17.4997 19.5476 16.9811 18.3606C16.7957 17.9398 16.9623 17.4369 17.3529 17.2367C17.7467 17.0365 18.2081 17.2188 18.3926 17.6394C18.8049 18.58 19.383 19.4059 20.1143 20.0966C20.1414 20.1168 20.1696 20.1382 20.1935 20.1606C20.6009 20.5354 20.8332 21.0808 20.8332 21.657C20.8332 22.7426 20.0155 23.6257 19.0102 23.6257Z" fill="white"/>
<path d="M18.2292 14.6252C14.496 14.6252 11.4586 11.3447 11.4586 7.31271C11.4586 3.28051 14.496 0 18.2292 0C21.9626 0 25 3.28051 25 7.31271C25 11.3447 21.9626 14.6252 18.2292 14.6252ZM18.2292 1.68753C15.3574 1.68753 13.0211 4.21101 13.0211 7.31271C13.0211 10.4144 15.3574 12.9377 18.2292 12.9377C21.1011 12.9377 23.4375 10.4144 23.4375 7.31271C23.4375 4.21101 21.1011 1.68753 18.2292 1.68753Z" fill="white"/>
</svg>
