<svg width="25" height="26" viewBox="0 0 25 26" fill="none" xmlns="http://www.w3.org/2000/svg">
<path d="M11.5693 12.0263L0.338867 7.03488C0.177979 6.96334 0 7.08807 0 7.27238V20.6164C0 20.9536 0.194482 21.2569 0.491113 21.3821L11.3839 25.9813C11.5443 26.049 11.7188 25.9244 11.7188 25.7421V12.2638C11.7188 12.1601 11.6599 12.0665 11.5693 12.0263Z" fill="white"/>
<path d="M12.5952 10.6084L23.4504 5.78376C23.6455 5.69707 23.6508 5.4072 23.4589 5.31273L12.8308 0.0773508C12.6214 -0.0257836 12.3795 -0.0257836 12.1701 0.0773508L1.54203 5.31273C1.35019 5.4072 1.35541 5.69707 1.55053 5.78376L12.4058 10.6084C12.4663 10.6353 12.5347 10.6353 12.5952 10.6084Z" fill="white"/>
<path d="M13.2812 12.2638V25.7421C13.2812 25.9244 13.4557 26.049 13.6161 25.9813L24.5089 21.3821C24.8055 21.2568 25 20.9536 25 20.6164V7.27238C25 7.08807 24.822 6.96334 24.6611 7.03488L13.4307 12.0263C13.3401 12.0665 13.2812 12.1601 13.2812 12.2638Z" fill="white"/>
</svg>
