<svg width="25" height="25" viewBox="0 0 25 25" fill="none" xmlns="http://www.w3.org/2000/svg">
<path d="M6.0484 1.61292C5.17115 1.61292 4.31359 1.87305 3.58418 2.36043C2.85477 2.84781 2.28626 3.54053 1.95055 4.35101C1.61484 5.16149 1.527 6.05332 1.69814 6.91372C1.86929 7.77412 2.29173 8.56445 2.91204 9.18476C3.53235 9.80507 4.32268 10.2275 5.18308 10.3987C6.04348 10.5698 6.93531 10.482 7.74579 10.1463C8.55627 9.81054 9.24899 9.24203 9.73637 8.51262C10.2237 7.78321 10.4839 6.92566 10.4839 6.0484C10.4826 4.87245 10.0148 3.74504 9.18329 2.91351C8.35176 2.08199 7.22436 1.61425 6.0484 1.61292ZM6.0484 9.67743C5.33065 9.67743 4.62901 9.46459 4.03222 9.06583C3.43543 8.66707 2.97029 8.10029 2.69561 7.43717C2.42094 6.77405 2.34907 6.04437 2.4891 5.34041C2.62913 4.63645 2.97476 3.98981 3.48229 3.48229C3.98982 2.97476 4.63645 2.62912 5.34041 2.4891C6.04438 2.34907 6.77405 2.42094 7.43717 2.69561C8.10029 2.97028 8.66707 3.43543 9.06583 4.03222C9.4646 4.62901 9.67743 5.33064 9.67743 6.0484C9.67635 7.01055 9.29366 7.93298 8.61332 8.61332C7.93298 9.29366 7.01055 9.67635 6.0484 9.67743Z" fill="white"/>
<path d="M6.85475 5.2419C6.96169 5.2419 7.06426 5.19942 7.13988 5.1238C7.2155 5.04818 7.25798 4.94562 7.25798 4.83868C7.25798 4.73174 7.2155 4.62917 7.13988 4.55355C7.06426 4.47794 6.96169 4.43545 6.85475 4.43545H6.45153C6.45153 4.32851 6.40904 4.22595 6.33342 4.15033C6.2578 4.07471 6.15524 4.03223 6.0483 4.03223C5.94136 4.03223 5.8388 4.07471 5.76318 4.15033C5.68756 4.22595 5.64507 4.32851 5.64507 4.43545H5.24185C5.13491 4.43545 5.03234 4.47794 4.95673 4.55355C4.88111 4.62917 4.83862 4.73174 4.83862 4.83868V6.04836C4.83862 6.1553 4.88111 6.25786 4.95673 6.33348C5.03234 6.4091 5.13491 6.45158 5.24185 6.45158H6.45153V6.85481H5.24185C5.13491 6.85481 5.03234 6.89729 4.95673 6.97291C4.88111 7.04853 4.83862 7.15109 4.83862 7.25803C4.83862 7.36498 4.88111 7.46754 4.95673 7.54316C5.03234 7.61878 5.13491 7.66126 5.24185 7.66126H5.64507C5.64507 7.7682 5.68756 7.87076 5.76318 7.94638C5.8388 8.022 5.94136 8.06448 6.0483 8.06448C6.15524 8.06448 6.2578 8.022 6.33342 7.94638C6.40904 7.87076 6.45153 7.7682 6.45153 7.66126H6.85475C6.96169 7.66126 7.06426 7.61878 7.13988 7.54316C7.2155 7.46754 7.25798 7.36498 7.25798 7.25803V6.04836C7.25798 5.94141 7.2155 5.83885 7.13988 5.76323C7.06426 5.68761 6.96169 5.64513 6.85475 5.64513H5.64507V5.2419H6.85475Z" fill="white"/>
<path d="M10.6855 0H1.41129C1.03712 0.000426887 0.678405 0.149253 0.413829 0.413829C0.149253 0.678405 0.000426887 1.03712 0 1.41129V10.6855C0.000426887 11.0597 0.149253 11.4184 0.413829 11.6829C0.678405 11.9475 1.03712 12.0963 1.41129 12.0968H10.6855C11.0597 12.0963 11.4184 11.9475 11.6829 11.6829C11.9475 11.4184 12.0963 11.0597 12.0968 10.6855V1.41129C12.0963 1.03712 11.9475 0.678405 11.6829 0.413829C11.4184 0.149253 11.0597 0.000426887 10.6855 0ZM11.2903 10.6855C11.2901 10.8458 11.2264 10.9996 11.113 11.113C10.9996 11.2264 10.8458 11.2901 10.6855 11.2903H1.41129C1.25093 11.2901 1.09719 11.2264 0.983796 11.113C0.870405 10.9996 0.806625 10.8458 0.806452 10.6855V1.41129C0.806625 1.25093 0.870405 1.09719 0.983796 0.983796C1.09719 0.870405 1.25093 0.806625 1.41129 0.806452H10.6855C10.8458 0.806625 10.9996 0.870405 11.113 0.983796C11.2264 1.09719 11.2901 1.25093 11.2903 1.41129V10.6855Z" fill="white"/>
<path d="M23.5887 0H14.3145C13.9403 0.000426887 13.5816 0.149253 13.317 0.413829C13.0525 0.678405 12.9036 1.03712 12.9032 1.41129V10.6855C12.9036 11.0597 13.0525 11.4184 13.317 11.6829C13.5816 11.9475 13.9403 12.0963 14.3145 12.0968H23.5887C23.9628 12.0963 24.3216 11.9475 24.5861 11.6829C24.8507 11.4184 24.9995 11.0597 25 10.6855V1.41129C24.9995 1.03712 24.8507 0.678405 24.5861 0.413829C24.3216 0.149253 23.9628 0.000426887 23.5887 0ZM24.1935 10.6855C24.1933 10.8458 24.1296 10.9996 24.0162 11.113C23.9028 11.2264 23.749 11.2901 23.5887 11.2903H14.3145C14.1541 11.2901 14.0004 11.2264 13.887 11.113C13.7736 10.9996 13.7098 10.8458 13.7096 10.6855V1.41129C13.7098 1.25093 13.7736 1.09719 13.887 0.983796C14.0004 0.870405 14.1541 0.806625 14.3145 0.806452H23.5887C23.749 0.806625 23.9028 0.870405 24.0162 0.983796C24.1296 1.09719 24.1933 1.25093 24.1935 1.41129V10.6855Z" fill="white"/>
<path d="M10.6855 12.9032H1.41129C1.03712 12.9036 0.678405 13.0525 0.413829 13.317C0.149253 13.5816 0.000426887 13.9403 0 14.3145V23.5887C0.000426887 23.9628 0.149253 24.3216 0.413829 24.5861C0.678405 24.8507 1.03712 24.9995 1.41129 25H10.6855C11.0597 24.9995 11.4184 24.8507 11.6829 24.5861C11.9475 24.3216 12.0963 23.9628 12.0968 23.5887V14.3145C12.0963 13.9403 11.9475 13.5816 11.6829 13.317C11.4184 13.0525 11.0597 12.9036 10.6855 12.9032ZM11.2903 23.5887C11.2901 23.749 11.2264 23.9028 11.113 24.0162C10.9996 24.1296 10.8458 24.1933 10.6855 24.1935H1.41129C1.25093 24.1933 1.09719 24.1296 0.983796 24.0162C0.870405 23.9028 0.806625 23.749 0.806452 23.5887V14.3145C0.806625 14.1541 0.870405 14.0004 0.983796 13.887C1.09719 13.7736 1.25093 13.7098 1.41129 13.7096H10.6855C10.8458 13.7098 10.9996 13.7736 11.113 13.887C11.2264 14.0004 11.2901 14.1541 11.2903 14.3145V23.5887Z" fill="white"/>
<path d="M23.5887 12.9032H14.3145C13.9403 12.9036 13.5816 13.0524 13.317 13.317C13.0524 13.5816 12.9036 13.9403 12.9032 14.3145V23.5887C12.9036 23.9629 13.0524 24.3216 13.317 24.5862C13.5816 24.8507 13.9403 24.9996 14.3145 25H23.5887C23.9629 24.9996 24.3216 24.8507 24.5862 24.5862C24.8507 24.3216 24.9996 23.9629 25 23.5887V14.3145C24.9996 13.9403 24.8507 13.5816 24.5862 13.317C24.3216 13.0524 23.9629 12.9036 23.5887 12.9032ZM24.1935 23.5887C24.1934 23.7491 24.1296 23.9028 24.0162 24.0162C23.9028 24.1296 23.7491 24.1934 23.5887 24.1935H14.3145C14.1541 24.1934 14.0004 24.1296 13.887 24.0162C13.7735 23.9028 13.7098 23.7491 13.7096 23.5887V14.3145C13.7098 14.1541 13.7735 14.0004 13.887 13.887C14.0004 13.7735 14.1541 13.7098 14.3145 13.7096H23.5887C23.7491 13.7098 23.9028 13.7735 24.0162 13.887C24.1296 14.0004 24.1934 14.1541 24.1935 14.3145V23.5887Z" fill="white"/>
<path d="M21.7729 17.7083C21.7645 17.6076 21.7185 17.5136 21.6441 17.4451C21.5697 17.3767 21.4722 17.3386 21.3711 17.3386H20.5646V16.7338C20.5642 16.3596 20.4154 16.0009 20.1508 15.7363C19.8862 15.4718 19.5275 15.3229 19.1534 15.3225H18.7501C18.376 15.3229 18.0172 15.4718 17.7527 15.7363C17.4881 16.0009 17.3393 16.3596 17.3388 16.7338V17.3386H16.5324C16.4313 17.3386 16.3338 17.3767 16.2594 17.4451C16.185 17.5136 16.139 17.6076 16.1306 17.7083L15.7273 22.5471C15.7227 22.6026 15.7297 22.6586 15.7477 22.7113C15.7658 22.7641 15.7947 22.8125 15.8324 22.8536C15.8702 22.8946 15.9161 22.9274 15.9671 22.9498C16.0182 22.9722 16.0734 22.9838 16.1292 22.9838H21.7743C21.8301 22.9838 21.8853 22.9722 21.9363 22.9498C21.9874 22.9274 22.0333 22.8946 22.071 22.8536C22.1088 22.8125 22.1377 22.7641 22.1557 22.7113C22.1738 22.6586 22.1808 22.6026 22.1761 22.5471L21.7729 17.7083ZM18.1453 16.7338C18.1455 16.5734 18.2092 16.4197 18.3226 16.3063C18.436 16.1929 18.5898 16.1291 18.7501 16.129H19.1534C19.3137 16.1291 19.4675 16.1929 19.5808 16.3063C19.6942 16.4197 19.758 16.5734 19.7582 16.7338V17.3386H18.1453V16.7338ZM16.5674 22.1773L16.9034 18.1451H17.3388V18.5483C17.3388 18.6553 17.3813 18.7578 17.4569 18.8334C17.5326 18.9091 17.6351 18.9515 17.7421 18.9515C17.849 18.9515 17.9516 18.9091 18.0272 18.8334C18.1028 18.7578 18.1453 18.6553 18.1453 18.5483V18.1451H19.7582V18.5483C19.7582 18.6553 19.8007 18.7578 19.8763 18.8334C19.9519 18.9091 20.0545 18.9515 20.1614 18.9515C20.2684 18.9515 20.3709 18.9091 20.4465 18.8334C20.5222 18.7578 20.5646 18.6553 20.5646 18.5483V18.1451H21.0001L21.3361 22.1773H16.5674Z" fill="white"/>
</svg>
