<svg width="25" height="25" viewBox="0 0 25 25" fill="none" xmlns="http://www.w3.org/2000/svg">
<path d="M10.7422 0H0.976562C0.437164 0 0 0.437163 0 0.976561V10.7422C0 11.2816 0.437164 11.7187 0.976562 11.7187H10.7422C11.2816 11.7187 11.7188 11.2816 11.7188 10.7422V0.976561C11.7188 0.437163 11.2816 0 10.7422 0ZM9.76562 9.76561H1.95312V1.95312H9.76562V9.76561ZM24.3973 13.3556C24.0324 13.2044 23.6122 13.2879 23.333 13.5671L13.5674 23.3327C13.2879 23.6122 13.2044 24.0322 13.3556 24.397C13.5069 24.7621 13.8628 25 14.2578 25H24.0234C24.5628 25 25 24.5628 25 24.0234V14.2578C25 13.8628 24.7622 13.5067 24.3973 13.3556ZM23.0469 23.0468H16.6155L23.0469 16.6155V23.0468ZM19.1406 11.7187C22.3715 11.7187 25 9.09022 25 5.85936C25 2.62851 22.3715 0 19.1406 0C15.9098 0 13.2812 2.62851 13.2812 5.85936C13.2812 9.09022 15.9098 11.7187 19.1406 11.7187ZM19.1406 1.95312C21.2946 1.95312 23.0469 3.7054 23.0469 5.85936C23.0469 8.01333 21.2946 9.76561 19.1406 9.76561C16.9867 9.76561 15.2344 8.01333 15.2344 5.85936C15.2344 3.7054 16.9867 1.95312 19.1406 1.95312ZM11.4326 14.9484L7.24049 19.1406L11.4326 23.3327C11.8141 23.7142 11.8141 24.3326 11.4326 24.7139C11.0514 25.0951 10.433 25.0953 10.0517 24.7139L5.85938 20.5217L1.66702 24.714C1.28574 25.0953 0.667381 25.0953 0.286102 24.714C-0.0953674 24.3326 -0.0953674 23.7142 0.286102 23.3329L4.47826 19.1406L0.286102 14.9484C-0.0953674 14.567 -0.0953674 13.9486 0.286102 13.5673C0.667381 13.1859 1.28574 13.1859 1.66702 13.5673L5.85938 17.7595L10.0517 13.5671C10.433 13.1859 11.0514 13.1859 11.4326 13.5671C11.8141 13.9486 11.8141 14.567 11.4326 14.9484Z" fill="white"/>
</svg>
