<svg width="25" height="25" viewBox="0 0 25 25" fill="none" xmlns="http://www.w3.org/2000/svg">
<circle cx="12.5" cy="12.5" r="12" fill="black" stroke="white"/>
<path d="M8.81 7.95C9.01667 7.75667 9.24333 7.57333 9.49 7.4C9.74333 7.22667 10.0167 7.07333 10.31 6.94C10.61 6.80667 10.93 6.70333 11.27 6.63C11.6167 6.55 11.99 6.51 12.39 6.51C12.9167 6.51 13.4033 6.58667 13.85 6.74C14.3033 6.89333 14.6933 7.11 15.02 7.39C15.3467 7.67 15.6033 8.01 15.79 8.41C15.9767 8.81 16.07 9.26 16.07 9.76C16.07 10.2667 15.9933 10.7033 15.84 11.07C15.6933 11.4367 15.5033 11.76 15.27 12.04C15.0433 12.3133 14.7933 12.5533 14.52 12.76C14.2533 12.96 14 13.15 13.76 13.33C13.52 13.51 13.3133 13.69 13.14 13.87C12.9733 14.05 12.8767 14.25 12.85 14.47L12.67 16H11.45L11.33 14.34C11.3033 14.04 11.36 13.78 11.5 13.56C11.64 13.3333 11.8233 13.1233 12.05 12.93C12.2767 12.73 12.5267 12.5367 12.8 12.35C13.0733 12.1567 13.3267 11.9433 13.56 11.71C13.8 11.4767 14 11.2133 14.16 10.92C14.32 10.62 14.4 10.2633 14.4 9.85C14.4 9.56333 14.3433 9.30333 14.23 9.07C14.1167 8.83667 13.9633 8.64 13.77 8.48C13.5767 8.31333 13.3467 8.18667 13.08 8.1C12.82 8.01333 12.54 7.97 12.24 7.97C11.8333 7.97 11.4833 8.02 11.19 8.12C10.9033 8.22 10.66 8.33 10.46 8.45C10.26 8.57 10.0967 8.68 9.97 8.78C9.85 8.88 9.75 8.93 9.67 8.93C9.50333 8.93 9.37333 8.85333 9.28 8.7L8.81 7.95ZM10.76 19.9C10.76 19.7267 10.79 19.5633 10.85 19.41C10.9167 19.2567 11.0033 19.1233 11.11 19.01C11.2233 18.8967 11.3567 18.8067 11.51 18.74C11.6633 18.6733 11.8267 18.64 12 18.64C12.1733 18.64 12.3367 18.6733 12.49 18.74C12.6433 18.8067 12.7767 18.8967 12.89 19.01C13.0033 19.1233 13.0933 19.2567 13.16 19.41C13.2267 19.5633 13.26 19.7267 13.26 19.9C13.26 20.08 13.2267 20.2467 13.16 20.4C13.0933 20.5467 13.0033 20.6767 12.89 20.79C12.7767 20.9033 12.6433 20.99 12.49 21.05C12.3367 21.1167 12.1733 21.15 12 21.15C11.8267 21.15 11.6633 21.1167 11.51 21.05C11.3567 20.99 11.2233 20.9033 11.11 20.79C11.0033 20.6767 10.9167 20.5467 10.85 20.4C10.79 20.2467 10.76 20.08 10.76 19.9Z" fill="white"/>
</svg>
