<svg width="25" height="28" viewBox="0 0 25 28" fill="none" xmlns="http://www.w3.org/2000/svg">
<path d="M12.3108 13.4876C14.2938 13.4876 16.0109 12.8231 17.4139 11.5118C18.8169 10.2008 19.5282 8.59677 19.5282 6.7436C19.5282 4.89108 18.8169 3.28678 17.4137 1.97536C16.0105 0.664576 14.2936 0 12.3108 0C10.3275 0 8.61086 0.664576 7.20785 1.97557C5.80483 3.28657 5.09338 4.89086 5.09338 6.7436C5.09338 8.59677 5.80483 10.2011 7.20808 11.5121C8.61132 12.8228 10.3282 13.4876 12.3108 13.4876Z" fill="white"/>
<path d="M24.9394 21.5305C24.899 20.9849 24.8171 20.3897 24.6966 19.7613C24.575 19.1281 24.4184 18.5295 24.2309 17.9824C24.0373 17.417 23.7739 16.8586 23.4484 16.3235C23.1105 15.768 22.7136 15.2844 22.2683 14.8864C21.8026 14.4701 21.2324 14.1353 20.5731 13.8912C19.9161 13.6483 19.1879 13.5252 18.409 13.5252C18.1031 13.5252 17.8073 13.6425 17.236 13.9901C16.8844 14.2043 16.4731 14.4521 16.014 14.7262C15.6215 14.9599 15.0898 15.1789 14.4329 15.3771C13.7921 15.5709 13.1415 15.6691 12.4993 15.6691C11.8571 15.6691 11.2067 15.5709 10.5652 15.3771C9.9091 15.1791 9.37734 14.9601 8.98527 14.7264C8.53055 14.4549 8.11904 14.2071 7.76218 13.9899C7.19155 13.6423 6.8955 13.525 6.58961 13.525C5.81049 13.525 5.08258 13.6483 4.42576 13.8914C3.76689 14.1351 3.1965 14.4699 2.73035 14.8866C2.28524 15.2848 1.88813 15.7683 1.5507 16.3235C1.22538 16.8586 0.962013 17.4168 0.768147 17.9827C0.580912 18.5297 0.42431 19.1281 0.302687 19.7613C0.182206 20.3889 0.100362 20.9843 0.0598972 21.5311C0.0201181 22.0669 0 22.6229 0 23.1846C0 24.6462 0.497238 25.8294 1.47777 26.702C2.44618 27.5632 3.72757 28 5.28581 28H19.7142C21.2724 28 22.5534 27.5634 23.522 26.702C24.5028 25.83 25 24.6466 25 23.1843C24.9998 22.6202 24.9794 22.0637 24.9394 21.5305Z" fill="white"/>
</svg>
