<svg width="25" height="31" viewBox="0 0 25 31" fill="none" xmlns="http://www.w3.org/2000/svg">
<path d="M23.2285 16.9997L21.4559 16.5629C21.4714 16.7968 21.4093 17.0301 21.237 17.2172L20.9447 17.5353L17.3894 21.4049C17.1651 21.6501 16.8094 21.7966 16.394 21.7966C16.3927 21.7966 16.3921 21.7966 16.3909 21.7966C16.0003 21.7847 15.641 21.6161 15.4284 21.3448L14.9117 20.6848L13.803 21.4949H11.1668L10.0744 20.6971L9.56713 21.3453C9.35507 21.6155 8.99559 21.7846 8.56106 21.7975C8.18806 21.7975 7.83113 21.6505 7.60603 21.4054L4.05205 17.5357L3.75976 17.2177C3.58761 17.0301 3.52536 16.7968 3.54094 16.5634L1.77138 16.9997C0.720624 17.2587 0 18.0574 0 18.9641V20.6673C0 26.3738 5.59651 31 12.5 31C19.4035 31 25 26.3738 25 20.6673V18.9641C24.9999 18.0574 24.2793 17.2587 23.2285 16.9997ZM12.5248 30.3549C12.1406 30.3549 11.7979 30.1791 11.6059 29.9098C11.5822 29.8769 11.5524 29.8482 11.5337 29.8122L10.0975 27.009L10.9829 22.1126H14.0668L14.9522 27.009L13.516 29.8122C13.4979 29.8471 13.4681 29.8754 13.445 29.9077C13.2536 30.1786 12.9103 30.3549 12.5248 30.3549Z" fill="white"/>
<path d="M6.0846 15.4048L4.42707 16.2189C4.28952 16.2862 4.19331 16.3993 4.16269 16.5294C4.13224 16.6594 4.16961 16.7934 4.26662 16.8988L8.11344 21.0871C8.21975 21.2033 8.38633 21.2711 8.56102 21.2711C8.56794 21.2711 8.57541 21.2706 8.58217 21.2706C8.76497 21.265 8.93346 21.1858 9.03293 21.0589L11.0736 18.452C9.22511 18.0877 7.49857 17.0258 6.0846 15.4048Z" fill="white"/>
<path d="M18.9134 15.4059C17.4996 17.0269 15.7729 18.0887 13.9232 18.4526L15.9632 21.0589C16.0627 21.1858 16.2306 21.265 16.4146 21.2707C16.4215 21.2707 16.4288 21.2711 16.4357 21.2711C16.6104 21.2711 16.7758 21.2033 16.8822 21.0871L20.7297 16.8988C20.8268 16.7935 20.864 16.6594 20.8341 16.5294C20.8031 16.3993 20.7061 16.2863 20.5693 16.2189L18.9134 15.4059Z" fill="white"/>
<path d="M5.74881 12.8567C7.05767 15.1787 9.4677 17.5563 12.5 17.5563C15.5305 17.5563 17.9386 15.1823 19.2486 12.8618C20.2876 12.6937 21.2713 11.895 21.7313 10.8044C22.3494 9.33499 21.839 7.89027 20.5762 7.457C20.8559 5.78001 20.9418 2.58573 16.1647 1.44887C16.1647 1.44887 15.2775 0.287358 13.2244 0.0432522C12.6891 -0.020502 12.0741 -0.0183987 11.3734 0.080716C10.3314 0.228205 9.10767 0.588449 7.67206 1.30033C4.20388 3.02057 3.96073 5.94708 4.4351 7.44057C4.43637 7.4436 4.43947 7.44576 4.44011 7.44931C3.80965 7.66161 3.33345 8.14627 3.1264 8.79236C2.93056 9.40551 2.98216 10.1204 3.27119 10.8045C3.72569 11.8848 4.69431 12.6789 5.74881 12.8567ZM4.35805 9.06111C4.42015 8.86525 4.58061 8.52091 4.95058 8.4145C4.98978 8.40326 5.27921 8.33865 5.39013 8.31788C8.22038 7.78833 14.9137 6.78266 15.7363 3.96827C15.7363 3.96827 16.5014 6.62656 19.4228 8.14614C19.7579 8.32045 20.0103 8.40319 20.0502 8.41443C20.6148 8.57684 20.9498 9.45671 20.529 10.4584C20.1497 11.3568 19.3793 11.8415 18.8322 11.8415C18.8316 11.8415 18.8316 11.8415 18.8316 11.8415C18.5704 11.8389 18.339 11.9628 18.2359 12.1575C17.128 14.2586 15.0393 16.5037 12.5001 16.5037C9.96076 16.5037 7.8722 14.2586 6.76426 12.1575C6.66297 11.9653 6.4067 11.8415 6.15305 11.8415C5.62095 11.8415 4.85182 11.3568 4.47374 10.4584C4.27027 9.97648 4.22797 9.4671 4.35805 9.06111Z" fill="white"/>
</svg>
